<?xml version="1.0" encoding="utf-8"?>
<!-- Generator: Adobe Illustrator 25.2.1, SVG Export Plug-In . SVG Version: 6.00 Build 0)  -->
<svg version="1.1" id="Layer_1" xmlns="http://www.w3.org/2000/svg" xmlns:xlink="http://www.w3.org/1999/xlink" x="0px" y="0px"
	 viewBox="0 0 761.3 543.2" style="enable-background:new 0 0 761.3 543.2;" xml:space="preserve">
<style type="text/css">
	.st0{fill:#664439;}
</style>
<path class="st0" d="M751.7,391c-5.1,2.8-9.2,7.3-15,9.2c-14.2,4.8-28.6,3.4-43,1.9c-7.5-0.8-14.7-2.5-22.7-5.3
	c1.3,5.4,2.4,10.4,3.6,15.3c3.2,13.6-5.1,23.6-19,23.1c-2.7-0.1-1.9-2.4-2.2-3.6c-6.6-27.9-13.2-55.8-19.7-83.8
	c-1.1-4.5-2-9.1-3.2-13.6c-0.7-2.4-0.3-3.6,2.4-4c2.1-0.3,4.2-1,6.3-1.4c9.2-1.8,16.3,2.4,18.6,11.5c1.5,5.8,2.2,11.7,3.5,18.6
	c14.4-14.2,29.7-23.8,46.8-30.3c25.5-9.6,50.4,6,53.3,32.8c0.7,6.4-1.4,12.4-2.7,18.5C756.2,383.6,753.9,387.3,751.7,391z"/>
<path class="st0" d="M97.5,534.2c-3.6-5.3-8.1-9.9-10.2-16.2c-7.9-23.3,5.8-47.2,30.2-51.1c18.7-3,37.1-0.9,55.2,4.6
	c0.6,0.2,1.2,0.4,3.6,1.2c-1.8-6.1-3.5-11.2-4.8-16.3c-2.7-11.5,1.5-18.2,13.1-21c7.5-1.8,7.5-1.8,9.2,5.8
	c7.2,30.5,14.2,61.1,21.6,91.5c1.2,4.9,0.1,6.6-4.5,6.8c-0.3,0-0.7,0.1-1,0.2c-12.8,2.9-19.1-1-22.1-14c-1.1-4.7-2-9.4-3.1-15.1
	c-10,9.7-20.4,16.9-31.6,23.1c-14.4,8-29.1,12.8-45.4,6.8C104.3,538.4,100.9,536.3,97.5,534.2z"/>
<path class="st0" d="M637.2,439.4c-0.8,0.3-1.4,0.5-2.1,0.7c-1,0.3-1.9,0.5-2.9,0.7c-131.2,30.8-262.4,61.5-393.6,92.4
	c-4.6,1.1-5.7-0.1-6.7-4.3c-7.2-31.5-14.6-63-22.2-94.5c-0.9-3.9,0-4.9,3.7-5.8C345,397.8,476.6,366.9,608.1,336
	c4.2-1,5.2,0,6.1,3.9c7.3,31.7,14.8,63.3,22.2,95C636.7,436.3,636.9,437.8,637.2,439.4z"/>
<path class="st0" d="M297.8,176c-3.1,0.2-5.7,1.8-8.4,2.9c-24.1,9.4-48.7,9.1-73.7,4.9c-25.6-4.4-50.3-12.6-75.4-19.2
	c-17.7-4.7-35.5-9-54.1-7.5c-11.3,0.9-22.1,3.4-30,12.6c-13.8,16-8.1,37.3,11.9,44.1c14.6,5,29.3,2.7,43.7-1.1
	c13.2-3.5,25.7-8.8,38.2-14.4c-18.7,20.5-40.9,35.3-68.9,42.1c13.2,17.4,18.4,32.3,20.7,42.8c4.8,21.9,8.5,31.2,11.9,37.2
	c0.8,1.3,1.6,2.7,2.3,3.7c15.6,21.1,85.1,0.3,99.8-4.3c24.3-7.6,58.7-21.2,97-46.8c-10,19.2-21.5,30.8-29.4,37.5
	c-33,27.8-95,47.6-133.2,49.9c-5.3,0.3-21.1,0.9-25.4,9.9c-2,4.2-1.3,9.6,0.9,13.1c5.5,8.7,22.5,8.2,65.7,0.4
	c45.1-8.2,67.7-12.3,87.5-21c21.4-9.4,43.8-19.5,61-42.7c11.3-15.2,16.5-30.5,16.6-30.5c0.2,0.1-7.1,39.4-31,66.6
	c-17.4,19.8-38,26.8-67.5,36.9c-24.5,8.4-49.8,11.9-100.3,18.8c-2,0.3-26.9,3.7-60.1,8l0,0c-22.4-19.4,14-68.2-12.7-158.2
	c-2.2-7.6-4.4-13.7-5.9-17.8c-2.7-1.3-5.6-0.6-8.4-0.3c-15.9,1.8-31.3-0.6-45.9-6.8c-23.5-10-31-30.7-19.7-53.8
	c9.2-18.9,23.8-32.7,41.9-43c11.7-6.6,24-11.5,37.1-14.3c13.9-2.9,27.8-2.7,41.6,0.3c26,5.7,51.5,13.5,77,21.3
	c17.7,5.4,35.6,10.4,54.3,9.8c17.7-0.6,34.7-4.2,47.6-17.4c18.2-18.6,21-48.4,4.7-67.9c-10.1-12.1-23.8-15.5-38.6-15
	c-33,1.2-58.4,16.1-76.9,43.3c-1.4,2.1-2.5,5.9-5.3,4.9c-2.6-0.9-0.8-4.5-0.7-6.8c0.7-12.8-4.1-22.7-14.9-29.6
	c-14.4-9.1-30.2-10.6-46.7-9.5c-17.3,1.1-33.5,5.2-47.5,16C65.6,85.3,57.2,99,50.6,114c-2.6,5.9-4.6,12.2-6.4,18.4
	c-0.5,1.7-0.8,4.1-3.2,3.8c-2.3-0.3-2.2-2.6-2.3-4.4c-1.9-24.7,2-48.2,16-69.2c0,0,14.2-19.4,36-29.3c6.4-2.9,13.4-4.9,13.4-4.9
	c4.6-1.3,8.7-2.2,11.9-2.7c11.2-2.7,22.2-1.2,33,1.8c11.1,3.1,21.1,8.6,30.5,15.3c7.4,5.3,14.3,10.9,20.3,17.6
	c2.9,3.2,4.8,2.5,7.1-0.4c8.5-10.6,18.8-18.8,31.4-24c17.7-7.3,36-10.8,55.1-6.6c18.5,4.1,32.2,14.6,41.4,31
	c2.3,4.2,4.5,8.5,5.7,13.3c1,4.6,2.1,9.2,3.2,13.8c2,18.6-0.4,35.2-7.3,49.8c-3.3,6.9-12.1,25-31.6,35.5
	C302,174.3,299.5,175.3,297.8,176z"/>
<path class="st0" d="M305.6,173.1c9.7,9,23.8,24.7,32.3,48c2.8,7.8,7.6,21.3,7,39.4c-0.7,19-7,33.5-11.1,41.3
	c0.7-16.5,0-37.9-5-62.2C323.1,211.6,313.7,189.1,305.6,173.1z"/>
<path class="st0" d="M511.6,373.6"/>
<g>
	<path d="M379.6,120.1l1.9,1.5c-1.8,4.6-3.5,8-5,10.2c-1.6,2.3-2.8,3.5-3.8,3.7c-0.8,0.2-1.3-0.6-1.7-2.3c-0.9-4.2,0-11.1,2.7-20.7
		c2.2-8.3,3.2-12.9,3-13.8c-0.2-0.7-0.5-1.1-1-0.9c-0.9,0.2-2.6,3.1-5.2,8.8c-2.6,5.7-5.6,13.6-9,23.6c-3.9,11.2-6.5,19.3-7.8,24
		c4.4-0.4,8-0.5,10.9-0.3c2.9,0.2,7.2,0.7,12.8,1.3c5.6,0.7,9.7,0.9,12.2,0.7c-2.1,4.8-3.6,8.1-4.4,9.8c-0.8,1.7-1.5,2.8-2,3.3
		c-0.9,0.7-2.3,1-4.3,1c-2,0-5.2-0.3-9.6-0.7c-4.4-0.4-8.5-0.7-12.2-0.7c-3.8-0.1-7.1,0.2-10.1,0.8c-1.7,0.4-3.1,0.9-4.2,1.6
		c-1.1,0.7-2.6,1.9-4.5,3.4c-1.9,1.5-3.3,2.4-4.2,2.6c-1.3,0.3-2-0.2-2.3-1.5c-0.2-0.7-0.1-1.5,0.1-2.5c0.6-2.3,1.2-4.5,1.8-6.6
		c0.6-2.1,1.3-3.8,2.2-5.1c0.9-1.3,2.3-2.5,4.3-3.5c2-1,4.7-1.9,8.2-2.7c3.1-10.8,6.2-20.5,9.1-29c2.9-8.5,5.7-15.7,8.3-21.7
		c2.6-6,5-10.6,7.2-13.8c2.2-3.3,4.2-5.1,5.8-5.4c1.2-0.2,2.1-0.1,2.9,0.6c0.8,0.6,1.4,1.7,1.7,3.1
		C384.6,93.6,383.3,104,379.6,120.1z"/>
	<path d="M396.2,132.7c3.7-6.4,7.6-11.4,11.6-15c4-3.6,7.3-5.6,9.8-6.2c0.7-0.1,1.4,0.1,2.1,0.6c0.7,0.6,1.3,1.2,1.9,2.1
		c0.5,0.8,0.8,1.4,0.9,1.9c0.2,0.7,0,1.3-0.3,1.7c-0.4,0.4-1.1,1-2.1,1.7c0.4,0.6,0.8,1.3,1.4,2.2c0.6,0.9,1,1.6,1.3,2.2
		c0.3,0.6,0.5,1.1,0.6,1.5c0.2,0.9-0.2,2.8-1.2,5.7c-1,2.9-1.7,5-2.1,6.3c-0.4,1.3-0.4,2.9,0,4.6c0.6,2.9,2,4.1,4.2,3.6
		c2.2-0.5,5.2-3.8,8.9-9.9l0.8,3.6c-5.8,12.7-10.4,19.4-13.9,20.1c-1.3,0.3-2.2,0-3-0.9c-0.7-0.9-1.3-2.3-1.7-4.2
		c-0.7-3.1-0.7-7.7-0.1-13.9c-3.3,7.3-5.9,12.5-7.6,15.7c-1.7,3.2-3.3,4.9-4.8,5.2c-0.7,0.2-1.7-0.4-3.1-1.6c-1.4-1.3-2.7-3-4-5.1
		c-1.3-2.2-2.3-4.5-2.8-7.1c-0.4-1.8-0.6-3.4-0.5-4.7c0-1.3,0.3-2.7,0.9-4.1C393.8,137.1,394.8,135.2,396.2,132.7z M417.9,121.3
		c-7.4,6.4-12.5,11.6-15.3,15.6c-2.9,4-3.9,7.7-3.2,11.1c0.3,1.2,0.7,2.2,1.2,2.9c0.5,0.7,1.1,1,1.7,0.9c0.4-0.1,0.9-0.5,1.7-1.2
		c2.9-3.1,5.3-6.9,7.2-11.4C413.1,134.8,415.4,128.8,417.9,121.3z"/>
	<path d="M432.9,137.4l-0.3-1.4c6-12.4,10.1-21,12.3-25.9c-0.3-4.9,0.9-7.7,3.6-8.3c0.7-0.1,1.4-0.1,2.3,0.2l0.5,1
		c0,0.5,0,1.2,0.2,2c0.2,0.7,0.7,2.1,1.6,4c0.9,1.9,1.6,3.5,2.2,4.8c0.5,1.3,1,2.8,1.4,4.5c0.5,2.6,0.6,5.1,0.1,7.7
		c-0.5,2.6-1.4,5.1-2.7,7.7c-1.4,2.5-3.3,5.3-5.7,8.1c1.2,0,2.1-0.1,2.8-0.2c1.3-0.3,2.7-1,4-2.1c1.4-1.1,2.7-2.5,4-4.2
		c1.3-1.7,2.8-3.8,4.4-6.4l0.8,3.9c-3.1,5.7-6,10.2-8.7,13.4c-2.7,3.2-5.2,5.1-7.6,5.6c-3,0.6-6.1-0.3-9.4-2.9
		c-1.9-1.5-3.2-3.1-4-4.8S433.6,140.3,432.9,137.4z M449,124.6l-2.7-8.3c-1.4,3.1-4.5,9.3-9.4,18.4c2,0.1,3.5,0.5,4.4,1.2
		c0.9,0.7,2.2,2.1,4,4.3c1.9-1.6,3.3-3.4,4.1-5.5c0.8-2.1,0.8-4.8,0.1-8.1c-0.1-0.4-0.2-0.7-0.2-1C449.2,125.3,449.1,125,449,124.6z
		"/>
	<path d="M491.7,128.3l-0.9-4.1c3.2-6.9,5.9-13.3,8-19.2c2.1-5.9,3.8-10.6,5.1-14.1c1.2-3.5,2.4-6,3.6-7.6s2.8-2.6,5-3.1
		c1.1-0.2,1.7,0.2,2,1.2c0.2,0.8,0,2.1-0.5,3.9c-0.5,1.8-1.3,3.7-2.3,5.6c-1.4,2.6-2.6,5.7-3.6,9.3s-2.1,8.3-3.3,13.8
		c1.4-2,3-4.4,4.8-7.1c1.8-2.7,3.3-4.9,4.4-6.4c1.2-1.6,2.4-2.9,3.6-3.9c1.2-1,2.6-1.7,4-2c0.9-0.2,1.5-0.1,1.9,0.2
		c0.4,0.3,0.7,1.1,0.9,2.2c0.6,3,0.7,6,0.1,9c-0.6,3.1-1.7,6.4-3.2,9.9c-1.6,3.5-3.6,7.4-6.1,11.7c1.2,0.3,2.4,0.3,3.6,0
		c3.7-0.8,8-5.3,12.8-13.5l0.9,4.2c-1.9,3.2-3.7,6.2-5.5,9s-3.6,5.2-5.4,7c-1.8,1.8-3.5,2.9-5.2,3.3c-0.6,0.1-1.3,0.2-2.1,0.2
		c-0.8,0-1.5-0.1-2.1-0.2c-0.7-0.1-1.5-0.3-2.6-0.6s-1.9-0.4-2.4-0.5c-1,0.5-1.5,0.8-1.6,0.8c-1.1,0.2-2.6,0-4.3-0.8
		c-0.5,2.7-1,6.2-1.4,10.4c-0.4,4.2-0.8,7.6-1.2,10.1c-0.4,2.5-1,5-2,7.5c-0.6,1.1-1.1,1.8-1.4,1.8c-1.4,0.3-2.4-1-3-4
		c-0.5-2.6-0.7-5.3-0.4-8.3c0.3-3,0.7-5.8,1.4-8.6c0.7-2.8,1.5-5.6,2.4-8.4c0.9-2.9,1.6-5,1.9-6.4c2.8-11.7,4.8-21.5,6.1-29.5
		C498.3,113.7,494.4,122.7,491.7,128.3z M511.8,126.9c2.3-4.7,3.9-8.7,4.9-11.8c0.9-3.2,1.3-5.5,0.9-7c-0.3-1.4-1.1-2-2.2-1.8
		c-1.6,0.3-3.5,2.4-5.7,6.3c-2.2,3.8-4.3,8.8-6.2,14.9c2.3-0.8,3.9-1.3,4.7-1.3S510.2,126.3,511.8,126.9z"/>
	<path d="M534.6,103c3.7-6.4,7.6-11.4,11.6-15c4-3.6,7.3-5.6,9.8-6.2c0.7-0.1,1.4,0.1,2.1,0.6c0.7,0.6,1.3,1.2,1.9,2.1
		c0.5,0.8,0.8,1.4,0.9,1.9c0.1,0.7,0,1.3-0.3,1.7c-0.4,0.4-1.1,1-2.1,1.7c0.4,0.6,0.8,1.3,1.4,2.2c0.6,0.9,1,1.6,1.3,2.2
		c0.3,0.6,0.5,1.1,0.6,1.5c0.2,0.9-0.2,2.8-1.2,5.7c-1,2.9-1.7,5-2.1,6.3c-0.4,1.3-0.4,2.9,0,4.6c0.6,2.9,2,4.1,4.2,3.6
		c2.2-0.5,5.2-3.8,8.9-9.9l0.8,3.6c-5.8,12.7-10.4,19.4-13.9,20.1c-1.3,0.3-2.2,0-3-0.9c-0.7-0.9-1.3-2.3-1.7-4.2
		c-0.7-3.1-0.7-7.7-0.1-13.9c-3.3,7.3-5.9,12.5-7.6,15.7c-1.7,3.2-3.3,4.9-4.8,5.2c-0.7,0.2-1.7-0.4-3.1-1.6c-1.4-1.3-2.7-3-4-5.1
		c-1.3-2.2-2.3-4.5-2.8-7.1c-0.4-1.8-0.6-3.4-0.5-4.7c0-1.3,0.3-2.7,0.9-4.1C532.2,107.5,533.2,105.5,534.6,103z M556.3,91.7
		c-7.4,6.4-12.5,11.6-15.3,15.6c-2.9,4-3.9,7.7-3.2,11.1c0.3,1.2,0.7,2.2,1.2,2.9c0.5,0.7,1.1,1,1.7,0.9c0.4-0.1,0.9-0.5,1.7-1.2
		c2.9-3.1,5.3-6.9,7.2-11.4C551.5,105.1,553.8,99.2,556.3,91.7z"/>
	<path d="M571.3,107.8l-0.3-1.4c6-12.4,10.1-21,12.3-25.9c-0.3-4.9,0.9-7.7,3.6-8.3c0.7-0.1,1.4-0.1,2.3,0.2l0.5,1
		c0,0.5,0,1.2,0.2,2c0.2,0.7,0.7,2.1,1.6,4c0.9,1.9,1.6,3.5,2.2,4.8c0.5,1.3,1,2.8,1.4,4.5c0.5,2.6,0.6,5.1,0.1,7.7
		c-0.5,2.6-1.4,5.1-2.7,7.7c-1.4,2.5-3.3,5.3-5.7,8.1c1.2,0,2.1-0.1,2.8-0.2c1.3-0.3,2.6-1,4-2.1c1.4-1.1,2.7-2.5,4-4.2
		c1.3-1.7,2.8-3.8,4.4-6.4l0.8,3.9c-3.1,5.7-6,10.2-8.7,13.4c-2.7,3.2-5.2,5.1-7.6,5.6c-3,0.6-6.1-0.3-9.4-2.9
		c-1.9-1.5-3.2-3.1-4-4.8C572.6,113,572,110.7,571.3,107.8z M587.4,95l-2.7-8.3c-1.4,3.1-4.5,9.3-9.4,18.4c2,0.1,3.5,0.5,4.4,1.2
		c0.9,0.7,2.2,2.1,4,4.3c1.9-1.6,3.3-3.4,4.1-5.5c0.8-2.1,0.8-4.8,0.1-8.1c-0.1-0.4-0.2-0.7-0.2-1C587.6,95.6,587.5,95.3,587.4,95z"
		/>
	<path d="M612.3,65.6l2.1-0.4c0.9-4.1,1.9-7,2.9-8.8c1-1.8,2.5-2.9,4.2-3.3s2.8-0.1,3,0.9c0.1,0.5-0.3,1.9-1.3,4.2
		c-0.9,2.4-1.6,4.3-2,5.9c1.1-0.1,2.1-0.1,3-0.2c0.9-0.1,1.6-0.1,2.1-0.1c-0.9,4.5-2.3,9.2-4.2,14.1c-0.9,0.1-1.7,0.2-2.3,0.3
		c-0.6,0.1-1.3,0.1-1.9,0.2c-0.6,0.1-1.4,0.2-2.3,0.3c-1,3.8-1.8,7.1-2.4,10c-0.6,2.9-1,5.5-1.1,7.9c-0.2,2.4,0,4.5,0.4,6.5
		c0.6,2.7,1.7,3.8,3.5,3.5c1.2-0.3,2.6-1.4,4.3-3.4c1.6-2,3.8-5,6.4-9l0.8,3.9c-6.2,13.3-11.4,20.3-15.5,21.2
		c-1.4,0.3-2.8-0.1-3.9-1.3c-1.2-1.2-2-2.8-2.4-5c-0.3-1.4-0.4-3.2-0.4-5.3c0.1-2.1,0.3-5.3,0.7-9.6c-0.3,0.6-0.7,1.1-1,1.6
		c-0.3,0.5-0.6,1-0.8,1.5c-0.3,0.4-0.5,0.9-0.8,1.4c-0.3,0.5-0.6,1-0.9,1.5l-0.9-4c2.6-4.1,5.4-11,8.4-20.6
		c-0.5,0.1-0.9,0.1-1.4,0.2c-0.4,0.1-0.9,0.2-1.5,0.3c-1.9,0.4-3.3,0.9-4.1,1.4c-0.4,0.2-0.7,0.4-1,0.6s-0.5,0.3-0.7,0.4
		c-0.1,0-0.2-0.1-0.3-0.3c-0.3-1.3,0-3.3,0.7-6.2c0.6-2.4,1.2-4.2,2-5.5c0.7-1.3,1.7-2.2,3-2.9C608,66.8,609.9,66.2,612.3,65.6z"/>
	<path d="M630,82.6c3.7-6.4,7.6-11.4,11.6-15c4-3.6,7.3-5.6,9.8-6.2c0.7-0.1,1.4,0.1,2.1,0.6c0.7,0.6,1.3,1.2,1.9,2.1
		c0.5,0.8,0.8,1.4,0.9,1.9c0.2,0.7,0,1.3-0.3,1.7c-0.4,0.4-1.1,1-2.1,1.7c0.4,0.6,0.8,1.3,1.4,2.2c0.6,0.9,1,1.6,1.3,2.2
		c0.3,0.6,0.5,1.1,0.6,1.5c0.2,0.9-0.2,2.8-1.2,5.7c-1,2.9-1.7,5-2.1,6.3c-0.4,1.3-0.4,2.9,0,4.6c0.6,2.9,2,4.1,4.2,3.6
		c2.2-0.5,5.2-3.8,8.9-9.9l0.8,3.6c-5.8,12.7-10.4,19.4-13.9,20.1c-1.3,0.3-2.2,0-3-0.9c-0.7-0.9-1.3-2.3-1.7-4.2
		c-0.7-3.1-0.7-7.7-0.1-13.9c-3.3,7.3-5.9,12.5-7.6,15.7c-1.7,3.2-3.3,4.9-4.8,5.2c-0.7,0.2-1.7-0.4-3.1-1.6c-1.4-1.3-2.7-3-4-5.1
		c-1.3-2.2-2.3-4.5-2.8-7.1c-0.4-1.8-0.6-3.4-0.5-4.7c0-1.3,0.3-2.7,0.9-4.1C627.6,87.1,628.6,85.1,630,82.6z M651.7,71.2
		c-7.4,6.4-12.5,11.6-15.3,15.6c-2.9,4-3.9,7.7-3.2,11.1c0.3,1.2,0.7,2.2,1.2,2.9c0.5,0.7,1.1,1,1.7,0.9c0.4-0.1,0.9-0.5,1.7-1.2
		c2.9-3.1,5.3-6.9,7.2-11.4C646.9,84.7,649.2,78.7,651.7,71.2z"/>
	<path d="M666.7,87.4l-0.3-1.4c6-12.4,10.1-21,12.3-25.9c-0.3-4.9,0.9-7.7,3.6-8.3c0.7-0.1,1.4-0.1,2.3,0.2l0.5,1c0,0.5,0,1.2,0.2,2
		c0.2,0.7,0.7,2.1,1.6,4c0.9,1.9,1.6,3.5,2.2,4.8s1,2.8,1.4,4.5c0.5,2.6,0.6,5.1,0.1,7.7c-0.5,2.6-1.4,5.1-2.7,7.7
		c-1.4,2.5-3.3,5.3-5.7,8.1c1.2,0,2.1-0.1,2.8-0.2c1.3-0.3,2.6-1,4-2.1c1.4-1.1,2.7-2.5,4-4.2c1.3-1.7,2.8-3.8,4.4-6.4l0.8,3.9
		c-3.1,5.7-6,10.2-8.7,13.4c-2.7,3.2-5.2,5.1-7.6,5.6c-3,0.6-6.1-0.3-9.4-2.9c-1.9-1.5-3.2-3.1-4-4.8
		C668,92.5,667.4,90.3,666.7,87.4z M682.8,74.6l-2.7-8.3c-1.4,3.1-4.5,9.3-9.4,18.4c2,0.1,3.5,0.5,4.4,1.2c0.9,0.7,2.2,2.1,4,4.3
		c1.9-1.6,3.3-3.4,4.1-5.5c0.8-2.1,0.8-4.8,0.1-8.1c-0.1-0.4-0.2-0.7-0.2-1C683,75.2,682.9,74.9,682.8,74.6z"/>
	<path d="M508.1,213.2c-2,4.5-3.8,8.3-5.5,11.5c-1.6,3.2-3,5.6-4.1,7.3c-1.1,1.6-1.9,2.5-2.4,2.6c-0.8,0.2-1.9-0.4-3.3-1.8
		c-1.4-1.4-2.7-3.3-4-5.7s-2.2-4.9-2.8-7.5c-0.8-3.8-0.1-7.9,2.1-12.4c2.2-4.5,4.9-8.4,8.3-11.7c3.3-3.4,5.9-5.2,7.9-5.6
		c1.6-0.3,3.4,0.5,5.4,2.6c1.1-6.8,2.3-12.9,3.5-18.2c1.2-5.3,2.3-9.4,3.3-12.1c1-2.7,1.8-4.1,2.5-4.2c0.7-0.2,1.4,0.1,2.2,0.8
		c0.8,0.7,1.3,1.6,1.5,2.6c0.4,2,0,5.8-1.4,11.2c-1.4,5.4-2.8,10.7-4.1,15.9c-1.4,5.2-2.4,10.2-3.2,15.1c-0.7,4.9-0.7,9.3,0.1,13.1
		c0.8,3.5,2.1,5.1,3.9,4.7c1.1-0.2,2.4-1.3,3.7-3.2c1.4-1.9,3.2-5,5.6-9.3l0.9,4.3c-4.6,12.3-8.8,18.9-12.5,19.7
		c-1.5,0.3-2.7-0.1-3.7-1.4c-1-1.3-1.7-3.3-2.3-6C508.8,221.8,508.3,217.7,508.1,213.2z M508.7,198.2c-2.6,1.8-5.6,4.4-8.9,7.8
		c-3.3,3.4-5.2,5.7-5.8,6.8c-0.5,0.9-0.9,2.5-0.9,4.8c-0.1,2.3,0,3.9,0.2,5c0.1,0.7,0.4,1.2,0.8,1.5c0.4,0.4,0.9,0.5,1.3,0.4
		c0.4-0.1,0.9-0.4,1.4-1c0.5-0.6,1.2-1.7,2.2-3.3c1-1.6,1.6-2.7,1.9-3.2c0.4-0.7,1.4-2.2,2.8-4.5c1.5-2.3,2.5-4.1,3.1-5.4
		c0.6-1.3,1.1-2.6,1.4-4.1C508.6,201.5,508.7,199.9,508.7,198.2z"/>
	<path d="M535.4,209.4l0.3,1.5c0.5,2.3,1.3,4,2.5,5.1c1.2,1.1,2.6,1.5,4.1,1.1c1.6-0.3,3.1-1.1,4.6-2.4c1.5-1.3,2.9-2.8,4.3-4.6
		c1.4-1.8,3-4.3,4.8-7.3l0.8,3.6c-2.5,6.1-5,10.8-7.6,14.3c-2.6,3.5-5.5,5.6-8.8,6.3c-2.9,0.6-5.4-0.2-7.6-2.6
		c-2.2-2.3-3.9-5.8-4.9-10.5c-0.9-4.1-0.9-8,0-11.6c0.9-3.7,2.7-7.7,5.4-12.2c1.9-3.1,3.9-5.5,6-7.3c2.1-1.8,4.1-2.9,6-3.3
		c1.5-0.3,2.8-0.2,3.9,0.5c1.1,0.6,1.8,1.8,2.1,3.5c0.5,2.5,0.3,5.1-0.7,7.8s-2.8,5.7-5.4,8.7C542.7,203.1,539.4,206.2,535.4,209.4z
		 M535,205.5c2.6-2,4.7-4.2,6.3-6.7c1.6-2.5,2.7-4.7,3.3-6.8c0.6-2.1,0.8-3.5,0.6-4.4c-0.2-0.9-0.6-1.3-1.3-1.1
		c-0.6,0.1-1.4,0.8-2.5,1.9c-1.1,1.2-2.2,2.6-3.2,4.3c-1,1.7-1.9,3.7-2.5,5.8C535.1,200.9,534.9,203.2,535,205.5z"/>
	<path d="M432.1,322.1l0.9,4.3c-4.4,12.2-8.7,18.8-12.9,19.7c-2.3,0.5-4.4-0.6-6.3-3.4c-1.9-2.7-3.4-6.6-4.5-11.5
		c-0.8-4-1.1-8.8-0.7-14.6c0.4-5.8,1.2-11.8,2.6-18c1.4-6.2,3-11.6,4.9-16.4c1.9-4.8,3.8-8.3,5.8-10.4c0.8-0.9,1.5-1.4,2-1.5
		c0.7-0.1,1.2,0.1,1.6,0.8c0.4,0.7,0.8,1.9,1.1,3.6c1.2,5.4,0.8,12.4-1.2,21.1c-1.9,8.7-5.3,17.8-10,27.4c0.1,2.1,0.3,3.7,0.5,4.8
		c0.5,2.5,1.4,4.4,2.6,5.8c1.2,1.4,2.6,1.9,4.2,1.5c0.8-0.2,1.6-0.7,2.4-1.7c0.8-1,1.5-2.1,2.3-3.5
		C428.3,328.8,429.8,326.1,432.1,322.1z M415.5,314.7c1.2-2.3,2.4-4.9,3.4-7.8c1-2.9,1.9-5.9,2.7-9.1c0.8-3.2,1.3-6,1.6-8.5
		c0.3-2.5,0.3-4.3,0.1-5.4c-0.2-0.9-0.5-1.3-1.1-1.2c-0.2,0-0.5,0.3-1,0.9c-1.5,2.4-2.9,6.6-4.2,12.8
		C415.8,302.6,415.3,308.7,415.5,314.7z"/>
	<path d="M435.2,311.2c3.7-6.4,7.6-11.4,11.6-15c4-3.6,7.3-5.7,9.8-6.2c0.7-0.1,1.4,0.1,2.1,0.6c0.7,0.6,1.3,1.2,1.9,2.1
		c0.5,0.8,0.8,1.4,0.9,1.9c0.1,0.7,0,1.3-0.3,1.7c-0.4,0.4-1.1,1-2.1,1.7c0.4,0.6,0.8,1.3,1.4,2.2c0.6,0.9,1,1.6,1.3,2.2
		c0.3,0.6,0.5,1.1,0.6,1.5c0.2,0.9-0.2,2.8-1.2,5.7c-1,2.9-1.7,5-2.1,6.3c-0.4,1.3-0.4,2.9,0,4.6c0.6,2.9,2,4.1,4.2,3.6
		c2.2-0.5,5.2-3.8,8.9-9.9l0.8,3.6c-5.8,12.7-10.4,19.4-13.9,20.1c-1.3,0.3-2.2,0-3-0.9c-0.7-0.9-1.3-2.3-1.7-4.2
		c-0.7-3.1-0.7-7.7-0.1-13.9c-3.3,7.3-5.9,12.5-7.6,15.7c-1.7,3.2-3.3,4.9-4.8,5.2c-0.7,0.2-1.7-0.4-3.1-1.7c-1.4-1.2-2.7-3-4-5.1
		c-1.3-2.2-2.3-4.5-2.8-7.1c-0.4-1.8-0.6-3.4-0.5-4.7s0.3-2.7,0.9-4.1C432.9,315.7,433.8,313.7,435.2,311.2z M456.9,299.9
		c-7.4,6.4-12.5,11.6-15.3,15.6c-2.9,4-3.9,7.7-3.2,11.1c0.3,1.2,0.7,2.2,1.2,2.9c0.5,0.7,1.1,1,1.7,0.9c0.4-0.1,0.9-0.5,1.7-1.2
		c2.9-3.1,5.3-6.9,7.2-11.4S454.4,307.3,456.9,299.9z"/>
	<path d="M508.4,302.1c3.3-12.6,5.7-22.5,7.1-29.7c1.4-7.2,2-11.6,1.6-13.4c-0.1-0.7-0.5-1.2-0.9-1.5c-0.5-0.3-1-0.5-1.5-0.4
		c-1,0.2-3.6,2-7.7,5.3c-3.4,2.8-5.9,4.9-7.4,6.4c-1.5,1.5-3.6,3.7-6.2,6.5c-2.6,2.8-4.2,4.3-4.6,4.3c-0.9,0.2-1.5-0.5-1.8-2
		c-0.6-2.9,0.1-7.1,2.2-12.6c2.1-5.5,5.3-10.7,9.8-15.5c0.5-0.6,0.9-0.7,1-0.1c0,0.2-0.2,0.7-0.9,1.6c-0.6,0.9-1.1,1.7-1.6,2.6
		c-0.4,0.8-0.9,2.1-1.3,3.7c5.9-5.5,10.2-9.5,13-11.8c2.8-2.3,5.3-3.8,7.6-4.2c2-0.4,3.6-0.3,4.9,0.5c1.3,0.8,2.2,2.1,2.6,3.9
		c0.3,1.6,0.3,4.1-0.1,7.5c-0.4,3.3-1.2,7.5-2.3,12.4c-1.1,4.9-2.3,9.7-3.5,14.6c-1.2,4.8-3.4,13.5-6.5,26.1
		c4.2-10.8,8.2-20.3,11.9-28.5c3.7-8.2,7-14.9,10-20.2c2.9-5.3,5.5-9.3,7.7-12.1c2.2-2.8,3.9-4.3,5.2-4.6c0.4-0.1,1.1,0.3,1.9,1.2
		c0.8,0.9,1.6,2,2.4,3.4c0.8,1.4,1.3,2.5,1.5,3.5c0.5,2.6,0.6,5.2,0,8c-0.5,2.8-1.5,6.1-2.8,10.1c-3.9,11.2-6.7,19.9-8.2,26.2
		c-1.6,6.3-2,11.1-1.2,14.6c0.6,2.6,2,3.7,4.2,3.2c1-0.2,2.1-0.9,3.3-2.2c1.2-1.2,2.5-3,4-5.4c1.5-2.4,3-4.9,4.5-7.6l1.1,4.5
		c-2,4-3.9,7.5-5.5,10.4s-3.3,5.5-4.8,7.7c-1.5,2.2-3,4-4.3,5.3c-1.3,1.3-2.6,2-3.7,2.3c-1.7,0.4-3.2,0-4.5-1.2
		c-1.3-1.2-2.2-2.9-2.7-5.1c-0.5-2.1-0.6-4.7-0.5-7.9c0.1-3.1,0.5-6.8,1.3-11c0.7-4.2,1.7-8.9,3.1-13.9c1.3-5,2.9-10.3,4.7-15.9
		c1.8-5.5,2.5-9,2.2-10.4c-0.2-0.8-0.6-1.1-1.3-1c-2.9,0.6-7.9,8.9-15.1,24.9c-0.5,1-1.2,2.8-2.3,5.5c-1.1,2.7-2.2,5.5-3.3,8.4
		c-1.1,3-2.3,6.3-3.7,10c-1.4,3.7-2.7,7.4-4.1,11.2c-0.7,1.8-1.3,2.8-2,2.9c-0.8,0.2-1.9-0.4-3.5-1.6c-1.6-1.2-2.4-2.2-2.6-2.9
		c-0.2-0.8,0.3-3,1.4-6.7C506.9,307.6,507.7,304.5,508.4,302.1z"/>
	<path d="M586.9,289.5l0.8,3.9c-1.6,2.8-3,4.7-4.1,5.8c-1.1,1.1-2.9,1.8-5.3,2.1c-2.9,6.9-5.9,10.7-9.1,11.3c-1.8,0.4-3.6,0-5.4-1.1
		c-1.8-1.1-3.4-2.8-4.8-5.1c-1.4-2.3-2.5-5-3.1-8.1c-0.5-2.5-0.4-5.4,0.3-8.7c0.7-3.3,1.9-6.5,3.5-9.6s3.5-5.7,5.6-7.8
		c2.1-2.1,4.2-3.4,6.4-3.9c1.5-0.3,2.8-0.3,3.7,0.1c1,0.4,1.6,1.1,1.8,2.1c0.2,0.8,0,1.8-0.5,2.9c1.3,0.1,2.2,0.4,2.8,1
		s1.1,1.9,1.5,3.8c0.4,1.9,0.5,4.3,0.4,7.3c-0.1,3-0.5,5.9-1.2,8.6l1.1,0.9l0.7-0.2c0.5-0.1,1-0.4,1.5-0.8c0.5-0.4,0.9-0.9,1.2-1.4
		C585,292.1,585.8,291.1,586.9,289.5z M573.7,276.3c-2.2,2.5-4.1,4.8-5.7,6.7c-1.6,2-2.8,3.9-3.8,5.8c-1,1.9-1.5,3.7-1.6,5.4
		c0.1,4.5,0.2,7,0.3,7.3c0.5,2.6,2.3,3.5,5.3,2.9c1.4-0.3,3.4-2.2,6-5.8c-0.9-1.7-1.6-3.4-1.9-5.1c-0.5-2.5-0.6-5-0.4-7.8
		C572.2,283.1,572.8,280,573.7,276.3z"/>
	<path d="M617,272.2c-4,8.8-5.7,14.7-5.1,17.7c0.4,1.7,1.1,2.4,2.2,2.1c0.9-0.2,2-1.1,3.3-2.6c1.2-1.5,3.1-4.1,5.6-7.8l0.9,4
		c-3.4,6.4-6,11.1-8,14s-3.7,4.6-5.2,4.9c-2.6,0.6-4.4-1.3-5.3-5.5c-0.3-1.2-0.4-2.5-0.3-3.8c0.1-1.3,0.2-2.6,0.5-4
		c0.3-1.4,0.7-3.5,1.4-6.2c0.6-2.7,1.4-5.7,2.2-9.1c-1.6,1.5-3.4,4.2-5.4,8.2c-1.3,2.5-2.4,4.8-3.3,7c-0.8,2.2-1.7,4.5-2.7,7.2
		c-0.9,2.6-1.6,4.4-2.1,5.3c-0.5,0.9-1.1,1.5-1.7,1.6c-1,0.2-2.3-0.9-3.7-3.3c-1.4-2.4-2.5-5.4-3.2-8.8c-0.5-2.1-0.6-3.9-0.5-5.1
		c0.1-1.3,0.6-3.2,1.3-5.6c1.3-4.6,2.6-8,3.8-10.3c1.2-2.3,2.5-3.6,4-3.9c1-0.2,1.9-0.2,2.6,0.1c0.7,0.3,1.2,0.9,1.4,1.8
		c0.1,0.4,0.1,0.8,0,1.3c-0.1,0.5-0.2,0.9-0.4,1.3s-0.5,1.2-1.1,2.4c-3.6,7.9-5.2,12.9-4.8,14.9c0.2,1.1,0.7,1.6,1.3,1.5
		c0.4-0.1,1-1,1.8-2.7c0.8-1.7,1.8-4,3-6.8c1.2-2.8,2.8-5.8,4.6-8.9c1.8-3.2,4-6.3,6.5-9.4c1.4-1.8,2.6-2.8,3.8-3.1
		c0.5-0.1,1.2,0.6,2.1,2.2c0.9,1.6,1.5,3.3,1.9,5C618.4,268.7,618,270.1,617,272.2z"/>
	<path d="M653,264.4c-4,8.8-5.7,14.7-5.1,17.7c0.4,1.7,1.1,2.4,2.2,2.1c0.9-0.2,2-1.1,3.3-2.6c1.2-1.5,3.1-4.1,5.6-7.8l0.9,4
		c-3.4,6.4-6,11.1-8,14c-1.9,2.9-3.7,4.6-5.2,4.9c-2.6,0.6-4.4-1.3-5.3-5.5c-0.3-1.2-0.4-2.5-0.3-3.8c0.1-1.3,0.2-2.6,0.5-4
		c0.3-1.4,0.7-3.5,1.4-6.2c0.6-2.7,1.4-5.7,2.2-9.1c-1.6,1.5-3.4,4.2-5.4,8.2c-1.3,2.5-2.4,4.8-3.3,7c-0.8,2.2-1.7,4.5-2.7,7.2
		c-0.9,2.6-1.6,4.4-2.1,5.3c-0.5,0.9-1.1,1.5-1.7,1.6c-1,0.2-2.3-0.9-3.7-3.3c-1.4-2.4-2.5-5.4-3.2-8.8c-0.5-2.1-0.6-3.9-0.5-5.1
		c0.1-1.3,0.6-3.2,1.3-5.6c1.3-4.6,2.6-8,3.8-10.3c1.2-2.3,2.5-3.6,4-3.9c1-0.2,1.9-0.2,2.6,0.1c0.7,0.3,1.2,0.9,1.4,1.8
		c0.1,0.4,0.1,0.8,0,1.3c-0.1,0.5-0.2,0.9-0.4,1.3c-0.2,0.4-0.5,1.2-1.1,2.4c-3.6,7.9-5.2,12.9-4.8,14.9c0.2,1.1,0.7,1.6,1.3,1.5
		c0.4-0.1,1-1,1.8-2.7c0.8-1.7,1.8-4,3-6.8c1.2-2.8,2.8-5.8,4.6-8.9c1.8-3.2,4-6.3,6.5-9.4c1.4-1.8,2.6-2.8,3.8-3.1
		c0.5-0.1,1.2,0.6,2.1,2.2c0.9,1.6,1.5,3.3,1.9,5C654.4,261,654,262.4,653,264.4z"/>
	<path d="M662.2,262.6c3.7-6.4,7.6-11.4,11.6-15s7.3-5.6,9.8-6.2c0.7-0.1,1.4,0.1,2.1,0.6c0.7,0.6,1.3,1.2,1.9,2.1
		c0.5,0.8,0.8,1.4,0.9,1.9c0.2,0.7,0,1.3-0.3,1.7s-1.1,1-2.1,1.7c0.4,0.6,0.8,1.3,1.4,2.2c0.6,0.9,1,1.6,1.3,2.2
		c0.3,0.6,0.5,1.1,0.6,1.5c0.2,0.9-0.2,2.8-1.2,5.7c-1,2.9-1.7,5-2.1,6.3c-0.4,1.3-0.4,2.9,0,4.6c0.6,2.9,2,4.1,4.2,3.6
		c2.2-0.5,5.2-3.8,8.9-9.9l0.8,3.6c-5.8,12.7-10.4,19.4-13.9,20.1c-1.3,0.3-2.2,0-3-0.9c-0.7-0.9-1.3-2.3-1.7-4.2
		c-0.7-3.1-0.7-7.7-0.1-13.9c-3.3,7.3-5.9,12.5-7.6,15.7c-1.7,3.2-3.3,4.9-4.8,5.2c-0.7,0.2-1.7-0.4-3.1-1.6c-1.4-1.3-2.7-3-4-5.1
		c-1.3-2.2-2.3-4.5-2.8-7.1c-0.4-1.8-0.6-3.4-0.5-4.7c0-1.3,0.3-2.7,0.9-4.1C659.9,267.1,660.8,265.1,662.2,262.6z M683.9,251.2
		c-7.4,6.4-12.5,11.6-15.3,15.6c-2.9,4-3.9,7.7-3.2,11.1c0.3,1.2,0.7,2.2,1.2,2.9c0.5,0.7,1.1,1,1.7,0.9c0.4-0.1,0.9-0.5,1.7-1.2
		c2.9-3.1,5.3-6.9,7.2-11.4C679.2,264.7,681.4,258.7,683.9,251.2z"/>
</g>
</svg>
